<svg width="30" height="30" viewBox="0 0 30 30" fill="none" xmlns="http://www.w3.org/2000/svg">
<g id="ri:instagram-fill">
<path id="Vector" d="M16.475 2.00161C17.4327 1.99794 18.3905 2.00757 19.348 2.03049L19.6027 2.03968C19.8967 2.05018 20.1867 2.0633 20.5371 2.07905C21.9336 2.14468 22.8865 2.36518 23.7226 2.68936C24.5888 3.02274 25.3186 3.47424 26.0483 4.20398C26.7156 4.85972 27.232 5.65291 27.5616 6.52842C27.8858 7.36448 28.1063 8.31866 28.1719 9.71516C28.1877 10.0643 28.2008 10.3557 28.2113 10.6497L28.2192 10.9043C28.2425 11.8613 28.2526 12.8187 28.2494 13.776L28.2507 14.7551V16.4745C28.2539 17.4323 28.2439 18.3901 28.2205 19.3476L28.2126 19.6022C28.2021 19.8962 28.189 20.1863 28.1733 20.5367C28.1076 21.9332 27.8845 22.8861 27.5616 23.7221C27.233 24.5986 26.7165 25.3924 26.0483 26.0479C25.392 26.715 24.5984 27.2314 23.7226 27.5612C22.8865 27.8854 21.9336 28.1059 20.5371 28.1715C20.1867 28.1872 19.8967 28.2004 19.6027 28.2109L19.348 28.2187C18.3905 28.2421 17.4328 28.2521 16.475 28.2489L15.4958 28.2502H13.7778C12.82 28.2535 11.8622 28.2434 10.9047 28.2201L10.6501 28.2122C10.3385 28.2009 10.027 28.1878 9.71561 28.1728C8.31912 28.1072 7.36624 27.8841 6.52887 27.5612C5.65302 27.2322 4.85969 26.7157 4.20444 26.0479C3.53644 25.392 3.01955 24.5983 2.68982 23.7221C2.36563 22.8861 2.14513 21.9332 2.07951 20.5367C2.06489 20.2253 2.05176 19.9138 2.04013 19.6022L2.03357 19.3476C2.00937 18.3901 1.99843 17.4323 2.00076 16.4745V13.776C1.99709 12.8187 2.00672 11.8613 2.02963 10.9043L2.03882 10.6497C2.04932 10.3557 2.06244 10.0643 2.07819 9.71516C2.14382 8.31735 2.36432 7.36579 2.68851 6.52842C3.01843 5.65248 3.53633 4.8595 4.20575 4.2053C4.86055 3.53691 5.65339 3.01955 6.52887 2.68936C7.36624 2.36518 8.3178 2.14468 9.71561 2.07905L10.6501 2.03968L10.9047 2.03312C11.8618 2.00893 12.8191 1.99799 13.7765 2.0003L16.475 2.00161ZM15.1257 8.5641C14.2562 8.5518 13.3929 8.71244 12.586 9.03669C11.7791 9.36093 11.0447 9.84231 10.4255 10.4529C9.80623 11.0634 9.31452 11.7909 8.97889 12.5932C8.64327 13.3954 8.47044 14.2563 8.47044 15.1259C8.47044 15.9955 8.64327 16.8565 8.97889 17.6587C9.31452 18.4609 9.80623 19.1885 10.4255 19.799C11.0447 20.4095 11.7791 20.8909 12.586 21.2152C13.3929 21.5394 14.2562 21.7001 15.1257 21.6878C16.8662 21.6878 18.5354 20.9964 19.7661 19.7656C20.9968 18.5349 21.6882 16.8657 21.6882 15.1253C21.6882 13.3848 20.9968 11.7156 19.7661 10.4849C18.5354 9.25419 16.8662 8.5641 15.1257 8.5641ZM15.1257 11.1891C15.6488 11.1795 16.1685 11.2741 16.6545 11.4676C17.1406 11.6611 17.5832 11.9495 17.9565 12.3159C18.3298 12.6824 18.6264 13.1196 18.8289 13.6019C19.0313 14.0843 19.1357 14.6021 19.1358 15.1253C19.1358 15.6484 19.0317 16.1663 18.8294 16.6487C18.6271 17.1311 18.3306 17.5684 17.9574 17.935C17.5842 18.3016 17.1417 18.5901 16.6557 18.7837C16.1698 18.9774 15.6501 19.0722 15.127 19.0628C14.0828 19.0628 13.0812 18.6479 12.3428 17.9095C11.6044 17.1711 11.1895 16.1696 11.1895 15.1253C11.1895 14.081 11.6044 13.0795 12.3428 12.341C13.0812 11.6026 14.0828 11.1878 15.127 11.1878L15.1257 11.1891ZM22.0163 6.59535C21.5929 6.6123 21.1925 6.79243 20.8989 7.098C20.6053 7.40358 20.4413 7.8109 20.4413 8.23466C20.4413 8.65842 20.6053 9.06575 20.8989 9.37132C21.1925 9.6769 21.5929 9.85702 22.0163 9.87397C22.4515 9.87397 22.8688 9.70112 23.1764 9.39344C23.4841 9.08577 23.657 8.66847 23.657 8.23335C23.657 7.79823 23.4841 7.38093 23.1764 7.07326C22.8688 6.76558 22.4515 6.59273 22.0163 6.59273V6.59535Z" fill="black"/>
</g>
</svg>
