<svg width="30" height="30" viewBox="0 0 30 30" fill="none" xmlns="http://www.w3.org/2000/svg">
<g id="mdi:linkedin">
<path id="Vector" d="M24.1111 3C24.811 3 25.4822 3.27802 25.9771 3.77291C26.472 4.2678 26.75 4.93901 26.75 5.63889V24.1111C26.75 24.811 26.472 25.4822 25.9771 25.9771C25.4822 26.472 24.811 26.75 24.1111 26.75H5.63889C4.93901 26.75 4.2678 26.472 3.77291 25.9771C3.27802 25.4822 3 24.811 3 24.1111V5.63889C3 4.93901 3.27802 4.2678 3.77291 3.77291C4.2678 3.27802 4.93901 3 5.63889 3H24.1111ZM23.4514 23.4514V16.4583C23.4514 15.3175 22.9982 14.2235 22.1915 13.4168C21.3849 12.6101 20.2908 12.1569 19.15 12.1569C18.0285 12.1569 16.7222 12.8431 16.0889 13.8722V12.4076H12.4076V23.4514H16.0889V16.9465C16.0889 15.9306 16.9069 15.0993 17.9229 15.0993C18.4128 15.0993 18.8827 15.2939 19.2291 15.6403C19.5755 15.9868 19.7701 16.4566 19.7701 16.9465V23.4514H23.4514ZM8.11944 10.3361C8.70734 10.3361 9.27116 10.1026 9.68686 9.68686C10.1026 9.27116 10.3361 8.70734 10.3361 8.11944C10.3361 6.89236 9.34653 5.88958 8.11944 5.88958C7.52805 5.88958 6.96087 6.12451 6.54269 6.54269C6.12451 6.96087 5.88958 7.52805 5.88958 8.11944C5.88958 9.34653 6.89236 10.3361 8.11944 10.3361ZM9.95347 23.4514V12.4076H6.29861V23.4514H9.95347Z" fill="black"/>
</g>
</svg>
