<svg width="30" height="30" viewBox="0 0 30 30" fill="none" xmlns="http://www.w3.org/2000/svg">
<g id="Frame 47254">
<path id="Vector" d="M15 1C9.47143 1 5 5.382 5 10.8C5 18.15 15 29 15 29C15 29 25 18.15 25 10.8C25 5.382 20.5286 1 15 1ZM15 14.3C14.0528 14.3 13.1444 13.9313 12.4746 13.2749C11.8048 12.6185 11.4286 11.7283 11.4286 10.8C11.4286 9.87174 11.8048 8.9815 12.4746 8.32513C13.1444 7.66875 14.0528 7.3 15 7.3C15.9472 7.3 16.8556 7.66875 17.5254 8.32513C18.1952 8.9815 18.5714 9.87174 18.5714 10.8C18.5714 11.7283 18.1952 12.6185 17.5254 13.2749C16.8556 13.9313 15.9472 14.3 15 14.3Z" fill="black"/>
</g>
</svg>
