<svg width="30" height="30" viewBox="0 0 30 30" fill="none" xmlns="http://www.w3.org/2000/svg">
<g id="tabler:mail-filled" clip-path="url(#clip0_90_298)">
<g id="Group">
<path id="Vector" d="M27.5 9.4187V21.25C27.5001 22.2065 27.1346 23.1268 26.4784 23.8228C25.8222 24.5187 24.9249 24.9376 23.97 24.9937L23.75 25H6.25C5.29349 25 4.37311 24.6345 3.67717 23.9783C2.98124 23.3221 2.56237 22.4248 2.50625 21.47L2.5 21.25V9.4187L14.3062 17.29L14.4513 17.3725C14.6221 17.4559 14.8098 17.4993 15 17.4993C15.1902 17.4993 15.3779 17.4559 15.5487 17.3725L15.6938 17.29L27.5 9.4187Z" fill="black"/>
<path id="Vector_2" d="M23.75 5C25.1 5 26.2837 5.7125 26.9437 6.78375L15 14.7463L3.05624 6.78375C3.36966 6.27471 3.80026 5.848 4.31213 5.53923C4.824 5.23046 5.40228 5.04857 5.99874 5.00875L6.24999 5H23.75Z" fill="black"/>
</g>
</g>
<defs>
<clipPath id="clip0_90_298">
<rect width="30" height="30" fill="white"/>
</clipPath>
</defs>
</svg>
