<svg width="30" height="30" viewBox="0 0 30 30" fill="none" xmlns="http://www.w3.org/2000/svg">
<g id="solar:phone-bold">
<path id="Vector" d="M20.44 18.3968L19.808 19.0363C19.808 19.0363 18.3039 20.5554 14.1997 16.4076C10.0956 12.2598 11.5997 10.7407 11.5997 10.7407L11.997 10.337C12.9789 9.3459 13.072 7.75342 12.215 6.59012L10.465 4.2141C9.40392 2.77409 7.35533 2.5835 6.14006 3.81174L3.95952 6.01411C3.35813 6.624 2.95536 7.41177 3.00397 8.28707C3.12897 10.5276 4.12618 15.346 9.68726 20.9676C15.5858 26.9282 21.1205 27.1653 23.383 26.9508C24.0997 26.883 24.7219 26.5131 25.2233 26.0049L27.1955 24.0114C28.5288 22.666 28.1538 20.3578 26.4483 19.4161L23.7955 17.9493C22.6761 17.3309 21.315 17.513 20.44 18.3968Z" fill="black"/>
</g>
</svg>
