<svg width="30" height="30" viewBox="0 0 30 30" fill="none" xmlns="http://www.w3.org/2000/svg">
<g id="mdi:web">
<path id="Vector" d="M20.95 17C21.05 16.175 21.125 15.35 21.125 14.5C21.125 13.65 21.05 12.825 20.95 12H25.175C25.375 12.8 25.5 13.6375 25.5 14.5C25.5 15.3625 25.375 16.2 25.175 17M18.7375 23.95C19.4875 22.5625 20.0625 21.0625 20.4625 19.5H24.15C22.939 21.5853 21.0176 23.165 18.7375 23.95ZM18.425 17H12.575C12.45 16.175 12.375 15.35 12.375 14.5C12.375 13.65 12.45 12.8125 12.575 12H18.425C18.5375 12.8125 18.625 13.65 18.625 14.5C18.625 15.35 18.5375 16.175 18.425 17ZM15.5 24.45C14.4625 22.95 13.625 21.2875 13.1125 19.5H17.8875C17.375 21.2875 16.5375 22.95 15.5 24.45ZM10.5 9.5H6.85C8.04857 7.40902 9.96849 5.82686 12.25 5.05C11.5 6.4375 10.9375 7.9375 10.5 9.5ZM6.85 19.5H10.5C10.9375 21.0625 11.5 22.5625 12.25 23.95C9.97328 23.1646 8.05606 21.5846 6.85 19.5ZM5.825 17C5.625 16.2 5.5 15.3625 5.5 14.5C5.5 13.6375 5.625 12.8 5.825 12H10.05C9.95 12.825 9.875 13.65 9.875 14.5C9.875 15.35 9.95 16.175 10.05 17M15.5 4.5375C16.5375 6.0375 17.375 7.7125 17.8875 9.5H13.1125C13.625 7.7125 14.4625 6.0375 15.5 4.5375ZM24.15 9.5H20.4625C20.0713 7.95182 19.492 6.45737 18.7375 5.05C21.0375 5.8375 22.95 7.425 24.15 9.5ZM15.5 2C8.5875 2 3 7.625 3 14.5C3 17.8152 4.31696 20.9946 6.66117 23.3388C7.8219 24.4996 9.19989 25.4203 10.7165 26.0485C12.233 26.6767 13.8585 27 15.5 27C18.8152 27 21.9946 25.683 24.3388 23.3388C26.683 20.9946 28 17.8152 28 14.5C28 12.8585 27.6767 11.233 27.0485 9.71646C26.4203 8.19989 25.4996 6.8219 24.3388 5.66117C23.1781 4.50043 21.8001 3.57969 20.2835 2.95151C18.767 2.32332 17.1415 2 15.5 2Z" fill="black"/>
</g>
</svg>
